<svg width="24" height="24" viewBox="0 0 24 24" fill="none" xmlns="http://www.w3.org/2000/svg">
<path d="M10.2227 20.6674C10.3356 21.052 10.57 21.3897 10.8909 21.6299C11.2118 21.8702 11.6019 22 12.0027 22C12.4036 22 12.7936 21.8702 13.1145 21.6299C13.4354 21.3897 13.6699 21.052 13.7828 20.6674" stroke="white" stroke-width="2" stroke-linecap="round" stroke-linejoin="round"/>
<path d="M12 4.00008V2" stroke="white" stroke-width="2" stroke-linecap="round" stroke-linejoin="round"/>
<path d="M12.0003 4.00012C13.7685 4.00012 15.4642 4.70253 16.7145 5.95282C17.9648 7.20311 18.6672 8.89886 18.6672 10.667C18.6672 16.9304 20.0006 18.0006 20.0006 18.0006H4C4 18.0006 5.33338 16.2975 5.33338 10.667C5.33338 8.89886 6.03579 7.20311 7.28608 5.95282C8.53637 4.70253 10.2321 4.00012 12.0003 4.00012V4.00012Z" stroke="white" stroke-width="2" stroke-linecap="round" stroke-linejoin="round"/>
</svg>
