<svg width="23" height="22" viewBox="0 0 23 22" fill="none" xmlns="http://www.w3.org/2000/svg">
<path d="M3.82773 12.8239C4.60408 9.09586 7.84949 6.44694 11.5002 6.44694C15.1497 6.44694 18.3951 9.09586 19.1726 12.8239C19.2034 12.9719 19.2917 13.1015 19.4181 13.1843C19.5444 13.2672 19.6985 13.2964 19.8465 13.2656C19.9944 13.2348 20.1241 13.1465 20.2069 13.0201C20.2897 12.8937 20.3189 12.7396 20.2882 12.5917C19.4037 8.35138 15.7041 5.30859 11.5002 5.30859C7.29626 5.30859 3.59665 8.35138 2.71215 12.5917C2.68136 12.7396 2.71059 12.8937 2.79342 13.0201C2.87625 13.1465 3.0059 13.2348 3.15383 13.2656C3.30177 13.2964 3.45587 13.2672 3.58225 13.1843C3.70864 13.1015 3.79694 12.9719 3.82773 12.8239ZM11.4888 8.72362C12.5454 8.72362 13.5588 9.14338 14.306 9.89056C15.0532 10.6377 15.473 11.6511 15.473 12.7078C15.473 13.7645 15.0532 14.7779 14.306 15.5251C13.5588 16.2723 12.5454 16.692 11.4888 16.692C10.4321 16.692 9.4187 16.2723 8.67152 15.5251C7.92434 14.7779 7.50457 13.7645 7.50457 12.7078C7.50457 11.6511 7.92434 10.6377 8.67152 9.89056C9.4187 9.14338 10.4321 8.72362 11.4888 8.72362Z" fill="#6A707C"/>
</svg>
