<svg width="24" height="25" viewBox="0 0 24 25" fill="none" xmlns="http://www.w3.org/2000/svg">
<path d="M21.6632 9.40535L12.0041 2.11743L2.33604 9.40535C2.13617 9.58979 2.01599 9.84481 2.00098 10.1164V21.2455C2.00168 21.4759 2.09348 21.6965 2.25634 21.8594C2.4192 22.0223 2.63988 22.1141 2.87019 22.1148H8.66675V17.4514C8.66675 16.5675 9.0179 15.7197 9.64294 15.0947C10.268 14.4696 11.1157 14.1185 11.9996 14.1185C12.8836 14.1185 13.7313 14.4696 14.3564 15.0947C14.9814 15.7197 15.3325 16.5675 15.3325 17.4514V22.1174H21.1282C21.3586 22.1167 21.5794 22.025 21.7424 21.8621C21.9054 21.6993 21.9974 21.4786 21.9983 21.2482V10.1164C21.9829 9.84491 21.8628 9.59001 21.6632 9.40535Z" stroke="white" stroke-linecap="round" stroke-linejoin="round"/>
</svg>
