<svg width="24" height="24" viewBox="0 0 24 24" fill="none" xmlns="http://www.w3.org/2000/svg">
<path d="M21.6632 9.28792L12.0041 2L2.33604 9.28792C2.13617 9.47236 2.01599 9.72738 2.00098 9.99893V21.1281C2.00168 21.3584 2.09348 21.5791 2.25634 21.742C2.4192 21.9048 2.63988 21.9966 2.87019 21.9973H8.66675V17.334C8.66675 16.45 9.0179 15.6023 9.64294 14.9772C10.268 14.3522 11.1157 14.0011 11.9996 14.0011C12.8836 14.0011 13.7313 14.3522 14.3564 14.9772C14.9814 15.6023 15.3325 16.45 15.3325 17.334V22H21.1282C21.3586 21.9993 21.5794 21.9075 21.7424 21.7447C21.9054 21.5819 21.9974 21.3612 21.9983 21.1308V9.99893C21.9829 9.72748 21.8628 9.47258 21.6632 9.28792Z" fill="#B0413D" stroke="#B0413D" stroke-width="2" stroke-linecap="round" stroke-linejoin="round"/>
</svg>
