<svg width="277" height="234" viewBox="0 0 277 234" fill="none" xmlns="http://www.w3.org/2000/svg">
<g clip-path="url(#clip0_423_515)">
<path d="M19.5013 116.541L7.93555 120.445L11.4059 130.715L22.9717 126.81L19.5013 116.541Z" fill="#23202F"/>
<path d="M158.384 83.4094L186.88 167.729C188.949 173.845 185.664 180.477 179.545 182.544L58.5945 223.381C52.4755 225.448 45.8375 222.167 43.7692 216.048L15.2725 131.732L158.384 83.4094Z" fill="#323B4B"/>
<path d="M145.878 87.6321C144.443 143.478 80.1661 188.706 41.963 210.705L15.2725 131.732L145.878 87.6321Z" fill="#334055"/>
<path d="M159.757 78.9449L162.961 88.4225C163.525 90.0894 162.629 91.8973 160.966 92.4588L18.142 140.683C16.4744 141.247 14.6681 140.351 14.1063 138.684L10.902 129.206C10.3377 127.539 11.232 125.736 12.8997 125.172L155.721 76.9482C156.2 76.787 156.688 76.7442 157.157 76.8097C158.323 76.9633 159.354 77.7564 159.757 78.9449Z" fill="#CBD3DB"/>
<path d="M27.8131 120.139L19.782 140.132L18.142 140.686C16.4744 141.25 14.6681 140.353 14.1063 138.686L10.902 129.209C10.3377 127.542 11.232 125.739 12.8997 125.175L27.8131 120.139Z" fill="#363545"/>
<path d="M60.1892 109.206L52.1581 129.198L31.5161 136.168L39.5447 116.176L60.1892 109.206Z" fill="#363545"/>
<path d="M92.5683 98.2727L84.5347 118.265L63.8901 125.238L71.9212 105.245L92.5683 98.2727Z" fill="#363545"/>
<path d="M124.944 87.3423L116.913 107.335L96.2661 114.305L104.3 94.312L124.944 87.3423Z" fill="#363545"/>
<path d="M157.157 76.8097L149.287 96.402L128.645 103.372L136.676 83.3791L155.721 76.9482C156.2 76.787 156.688 76.7442 157.157 76.8097Z" fill="#363545"/>
<path d="M150.854 83.5502L16.5575 128.896C15.8446 129.138 15.0687 128.755 14.8269 128.04C14.585 127.328 14.968 126.552 15.6834 126.31L149.98 80.9643C150.693 80.7226 151.469 81.1053 151.711 81.8204C151.952 82.5355 151.57 83.311 150.854 83.5502Z" fill="#272631"/>
<path d="M112.78 5.93631L119.841 13.0269C121.083 14.2733 121.078 16.2902 119.833 17.529L12.9958 123.835C11.7488 125.076 9.73343 125.069 8.49149 123.822L1.43027 116.732C0.188326 115.485 0.193364 113.474 1.44035 112.232L108.278 5.92624C108.636 5.57121 109.056 5.31438 109.505 5.16582C110.618 4.79064 111.896 5.04747 112.78 5.93631Z" fill="#CBD3DB"/>
<path d="M12.5947 101.133L14.2196 122.617L12.9927 123.838C11.7458 125.079 9.73043 125.072 8.48848 123.825L1.42979 116.732C0.187838 115.486 0.192876 113.474 1.43986 112.232L12.5947 101.133Z" fill="#363545"/>
<path d="M36.814 77.0339L38.4414 98.5172L22.999 113.879L21.3716 92.3986L36.814 77.0339Z" fill="#363545"/>
<path d="M61.0358 52.9346L62.6607 74.4178L47.2182 89.7825L45.5908 68.3017L61.0358 52.9346Z" fill="#363545"/>
<path d="M85.255 28.835L86.8799 50.3182L71.4374 65.6854L69.8101 44.2021L85.255 28.835Z" fill="#363545"/>
<path d="M109.505 5.1687L111.097 26.2214L95.6542 41.586L94.0293 20.1028L108.275 5.92661C108.635 5.57158 109.056 5.31726 109.505 5.1687Z" fill="#363545"/>
<path d="M5.84087 114.282C5.36475 114.443 4.81557 114.332 4.43517 113.952C3.90363 113.418 3.90615 112.555 4.44021 112.024L104.902 12.0654C105.436 11.5341 106.3 11.5366 106.832 12.0704C107.363 12.6042 107.361 13.4679 106.827 13.9992L6.36737 113.957C6.2137 114.111 6.03484 114.219 5.84087 114.282Z" fill="#272631"/>
<path d="M12.9978 118.865C13.4034 120.275 12.5897 121.748 11.1789 122.153C9.76821 122.559 8.2945 121.745 7.88892 120.335C7.48333 118.925 8.29702 117.452 9.70775 117.047C11.1185 116.641 12.5922 117.455 12.9978 118.865Z" fill="#23202F"/>
<path d="M163.863 122.04L35.9599 165.226C35.247 165.467 34.4711 165.085 34.2292 164.37C33.9874 163.657 34.3703 162.881 35.0857 162.64L162.989 119.454C163.702 119.212 164.478 119.595 164.719 120.31C164.961 121.025 164.576 121.798 163.863 122.04Z" fill="#CBD3DB"/>
<path d="M71.9057 153.089C71.1928 153.331 70.4168 152.948 70.175 152.233L63.7688 133.275C63.5269 132.563 63.9099 131.787 64.6253 131.545C65.3382 131.304 66.1141 131.686 66.356 132.401L72.7622 151.359C73.0015 152.074 72.6186 152.85 71.9057 153.089Z" fill="#CBD3DB"/>
<path d="M136.85 131.16C136.137 131.402 135.361 131.019 135.119 130.304L128.713 111.346C128.471 110.634 128.854 109.858 129.57 109.616C130.283 109.375 131.058 109.757 131.3 110.473L137.707 129.43C137.948 130.145 137.565 130.921 136.85 131.16Z" fill="#CBD3DB"/>
<path d="M173.829 151.53L45.9257 194.716C45.2128 194.958 44.4369 194.575 44.195 193.86C43.9532 193.147 44.3361 192.372 45.0516 192.13L172.955 148.945C173.667 148.703 174.443 149.086 174.685 149.801C174.927 150.516 174.544 151.289 173.829 151.53Z" fill="#CBD3DB"/>
<path d="M28.4731 144.604C28.8006 144.41 29.2919 144.198 29.773 144.037C30.5187 143.785 31.0477 143.763 31.4886 143.964C31.8438 144.12 32.1259 144.447 32.2695 144.878C32.5189 145.613 32.2343 146.25 31.7304 146.641L31.738 146.666C32.204 146.673 32.5869 146.986 32.9119 147.519C33.3502 148.237 33.6601 148.73 33.844 148.907L33.1235 149.151C32.9824 149.025 32.7003 148.584 32.3149 147.945C31.8942 147.232 31.5087 147.041 30.8663 147.23L30.2088 147.451L31.0225 149.861L30.3247 150.095L28.4731 144.604ZM30.0249 146.902L30.7379 146.661C31.4835 146.409 31.8136 145.827 31.5994 145.193C31.3576 144.475 30.7454 144.332 30.0048 144.573C29.6672 144.687 29.438 144.802 29.3372 144.873L30.0249 146.902Z" fill="#CBD3DB"/>
<path d="M39.1214 143.962C39.7688 145.878 38.9828 147.275 37.6023 147.739C36.1765 148.219 34.7884 147.419 34.2191 145.734C33.6221 143.967 34.2972 142.451 35.7407 141.965C37.2169 141.469 38.5647 142.31 39.1214 143.962ZM34.9597 145.467C35.3628 146.656 36.3478 147.509 37.4436 147.139C38.5495 146.767 38.8216 145.505 38.3934 144.244C38.0205 143.138 37.0683 142.171 35.9044 142.564C34.7532 142.952 34.5491 144.246 34.9597 145.467Z" fill="#CBD3DB"/>
<path d="M39.9102 140.66L40.608 140.426L42.2857 145.387L44.5933 144.609L44.7973 145.21L41.792 146.225L39.9102 140.66Z" fill="#CBD3DB"/>
<path d="M44.4951 139.112L45.1929 138.878L46.8707 143.838L49.1782 143.058L49.3823 143.659L46.3769 144.674L44.4951 139.112Z" fill="#CBD3DB"/>
<path d="M39.4893 171.493C39.983 171.14 40.5952 170.793 41.3106 170.551C42.608 170.113 43.7366 170.408 44.7392 171.349C45.7494 172.289 46.6638 173.794 47.4347 176.073C48.2106 178.372 48.4953 180.371 48.2786 181.887C48.0695 183.425 47.2306 184.501 45.8703 184.959C45.2254 185.175 44.6661 185.296 44.1724 185.347L39.4893 171.493ZM44.6032 183.642C44.8601 183.65 45.2002 183.556 45.5529 183.438C47.4851 182.786 47.7975 180.258 46.5127 176.456C45.3992 173.13 43.7517 171.334 41.8422 171.979C41.3761 172.137 41.0511 172.339 40.8471 172.525L44.6032 183.642Z" fill="#CBD3DB"/>
<path d="M47.7647 168.489L52.526 182.575L51.6216 182.879L46.8604 168.794L47.7647 168.489Z" fill="#CBD3DB"/>
<path d="M49.9263 167.968C50.3193 167.625 50.939 167.3 51.5612 167.089C52.526 166.764 53.2692 166.908 53.9746 167.555C54.5389 168.063 55.0628 168.957 55.4281 170.045C56.0579 171.906 55.8917 173.333 55.3248 174.084L55.345 174.147C56.0126 174.341 56.6726 175.235 57.3326 176.642C58.2244 178.531 58.8491 179.832 59.1792 180.326L58.2445 180.641C57.9952 180.283 57.4309 179.122 56.6398 177.433C55.7758 175.559 55.1535 174.955 54.3121 175.169L53.4607 175.456L55.5239 181.557L54.6195 181.862L49.9263 167.968ZM52.9971 174.079L53.9217 173.767C54.8865 173.442 55.1384 172.168 54.5968 170.559C53.9821 168.741 53.0601 168.167 52.0978 168.469C51.662 168.617 51.3773 168.804 51.2614 168.937L52.9971 174.079Z" fill="#CBD3DB"/>
<path d="M62.1187 171.976L59.398 172.895L61.1135 177.974L64.1441 176.949L64.6605 178.475L60.7256 179.805L55.9644 165.719L59.7431 164.443L60.2595 165.969L57.3826 166.94L58.8866 171.392L61.6073 170.473L62.1187 171.976Z" fill="#CBD3DB"/>
<path d="M71.0921 175.793C70.8729 176.239 70.3212 176.798 69.4697 177.085C67.4972 177.752 65.1645 175.746 63.6051 171.125C62.1138 166.716 62.5899 163.226 64.7589 162.494C65.6305 162.199 66.3082 162.39 66.6331 162.559L66.9153 164.115C66.4593 163.896 65.8875 163.81 65.3055 164.007C63.6656 164.561 63.2877 167.038 64.5372 170.737C65.7036 174.184 67.4368 176.068 69.1397 175.494C69.6889 175.307 70.1726 174.89 70.4169 174.411L71.0921 175.793Z" fill="#CBD3DB"/>
<path d="M70.281 162.609L68.1523 163.327L67.6309 161.781L72.8128 160.031L73.3342 161.577L71.1955 162.3L75.4327 174.839L74.5183 175.149L70.281 162.609Z" fill="#CBD3DB"/>
<path d="M82.1387 164.566C83.7761 169.413 83.1816 172.48 81.3955 173.082C79.5465 173.706 77.2742 171.261 75.8332 166.996C74.3217 162.524 74.7147 159.132 76.5839 158.5C78.496 157.856 80.728 160.386 82.1387 164.566ZM76.788 166.628C77.8057 169.637 79.5263 172.059 80.9471 171.579C82.3805 171.095 82.2924 168.167 81.2116 164.969C80.2644 162.169 78.5489 159.487 77.0449 159.996C75.5511 160.504 75.7425 163.536 76.788 166.628Z" fill="#CBD3DB"/>
<path d="M81.5669 157.287C81.9599 156.944 82.5796 156.619 83.2018 156.408C84.1667 156.083 84.9098 156.226 85.6152 156.874C86.1795 157.382 86.7035 158.276 87.0688 159.361C87.6985 161.222 87.5323 162.65 86.9655 163.4L86.9856 163.463C87.6532 163.657 88.3132 164.551 88.9732 165.958C89.865 167.847 90.4898 169.149 90.8198 169.642L89.8852 169.957C89.6358 169.599 89.0715 168.439 88.2805 166.749C87.4164 164.876 86.7942 164.271 85.9528 164.485L85.1013 164.772L87.1645 170.873L86.2601 171.178L81.5669 157.287ZM84.6378 163.398L85.5623 163.085C86.5271 162.761 86.779 161.486 86.2374 159.878C85.6227 158.06 84.7007 157.485 83.7384 157.788C83.3026 157.934 83.0179 158.122 82.9021 158.256L84.6378 163.398Z" fill="#CBD3DB"/>
<path d="M72.6792 134.819C73.0596 134.912 73.5709 134.922 74.0521 134.761C74.765 134.519 75.0522 133.99 74.8608 133.429C74.6844 132.91 74.2965 132.709 73.4702 132.666C72.4801 132.641 71.7748 132.356 71.5103 131.57C71.218 130.704 71.6967 129.825 72.7472 129.47C73.3014 129.284 73.7448 129.282 74.0345 129.339L74.0395 129.989C73.8304 129.949 73.4122 129.906 72.9235 130.072C72.1854 130.321 72.0594 130.87 72.1879 131.251C72.3643 131.772 72.7799 131.915 73.6238 131.961C74.6592 132.016 75.2789 132.313 75.556 133.129C75.8458 133.988 75.4805 134.939 74.2058 135.37C73.6843 135.546 73.0621 135.582 72.7069 135.481L72.6792 134.819Z" fill="#CBD3DB"/>
<path d="M81.5366 132.6C81.325 132.819 80.8564 133.124 80.1989 133.346C78.6748 133.859 77.1961 133.255 76.5789 131.432C75.9894 129.689 76.7376 128.123 78.4128 127.557C79.0854 127.33 79.5615 127.335 79.7782 127.37L79.8084 128.013C79.4986 127.97 79.0879 127.997 78.6395 128.148C77.3724 128.577 76.8131 129.695 77.3069 131.155C77.7679 132.517 78.8234 133.134 80.1384 132.691C80.5642 132.547 80.9647 132.311 81.199 132.077L81.5366 132.6Z" fill="#CBD3DB"/>
<path d="M85.1894 128.662L83.0885 129.372L83.7661 131.379L86.1064 130.588L86.3105 131.19L83.2724 132.215L81.3931 126.65L84.3103 125.666L84.5143 126.268L82.2949 127.018L82.8894 128.775L84.9904 128.065L85.1894 128.662Z" fill="#CBD3DB"/>
<path d="M88.0185 130.614L86.1392 125.049L86.8999 124.792L89.5829 127.023C90.2051 127.539 90.714 128.02 91.1649 128.504L91.1775 128.491C90.8626 127.771 90.6182 127.099 90.3235 126.23L89.5375 123.903L90.195 123.682L92.0743 129.246L91.3689 129.486L88.6986 127.242C88.1117 126.751 87.5373 126.235 87.0612 125.726L87.041 125.741C87.3181 126.429 87.56 127.093 87.8723 128.018L88.676 130.395L88.0185 130.614Z" fill="#CBD3DB"/>
<path d="M96.0117 125.009L93.9107 125.719L94.5884 127.725L96.9287 126.935L97.1327 127.537L94.0946 128.561L92.2153 122.997L95.1325 122.012L95.3366 122.614L93.1172 123.364L93.7117 125.122L95.8127 124.412L96.0117 125.009Z" fill="#CBD3DB"/>
<path d="M123.262 179.528C123.05 179.747 122.581 180.051 121.924 180.273C120.4 180.787 118.921 180.185 118.304 178.359C117.714 176.617 118.463 175.051 120.138 174.484C120.811 174.258 121.287 174.263 121.503 174.298L121.534 174.94C121.224 174.897 120.813 174.925 120.365 175.076C119.097 175.504 118.538 176.622 119.032 178.082C119.493 179.445 120.549 180.062 121.864 179.618C122.289 179.475 122.69 179.238 122.924 179.004L123.262 179.528Z" fill="#CBD3DB"/>
<path d="M125.312 177.088L125.342 179.027L124.622 179.271L124.577 173.087L125.418 172.802L129.141 177.745L128.396 177.997L127.227 176.441L125.312 177.088ZM126.894 175.927L125.824 174.504C125.582 174.182 125.388 173.877 125.199 173.583L125.184 173.588C125.214 173.945 125.242 174.313 125.252 174.686L125.267 176.473L126.894 175.927Z" fill="#CBD3DB"/>
<path d="M134.434 173.235C134.132 172.472 133.769 171.556 133.543 170.861L133.517 170.868C133.553 171.583 133.563 172.351 133.55 173.213L133.51 176.234L132.981 176.413L131.212 174.059C130.691 173.361 130.232 172.717 129.857 172.107L129.842 172.112C130.061 172.812 130.336 173.756 130.57 174.608L131.232 177.042L130.567 177.267L129.063 171.576L129.953 171.276L131.784 173.656C132.24 174.265 132.631 174.814 132.963 175.345L132.988 175.338C132.935 174.731 132.92 174.054 132.925 173.271L132.978 170.254L133.868 169.954L136.084 175.406L135.404 175.635L134.434 173.235Z" fill="#CBD3DB"/>
<path d="M139.868 171.216L137.767 171.926L138.445 173.933L140.785 173.142L140.989 173.744L137.951 174.769L136.069 169.204L138.987 168.219L139.191 168.821L136.971 169.572L137.566 171.329L139.667 170.619L139.868 171.216Z" fill="#CBD3DB"/>
<path d="M140.843 167.678C141.17 167.484 141.662 167.273 142.143 167.111C142.888 166.86 143.417 166.837 143.858 167.038C144.213 167.195 144.496 167.522 144.639 167.952C144.889 168.688 144.604 169.325 144.1 169.715L144.108 169.74C144.574 169.748 144.957 170.06 145.282 170.596C145.72 171.311 146.03 171.805 146.214 171.984L145.493 172.228C145.352 172.102 145.07 171.661 144.684 171.022C144.264 170.309 143.878 170.118 143.236 170.307L142.578 170.528L143.392 172.938L142.694 173.172L140.843 167.678ZM142.395 169.977L143.108 169.735C143.853 169.483 144.183 168.902 143.969 168.267C143.727 167.55 143.115 167.406 142.374 167.648C142.037 167.761 141.808 167.877 141.707 167.947L142.395 169.977Z" fill="#CBD3DB"/>
<path d="M148.134 169.383L148.164 171.322L147.443 171.566L147.398 165.382L148.239 165.097L151.963 170.04L151.217 170.292L150.048 168.736L148.134 169.383ZM149.716 168.222L148.645 166.799C148.403 166.477 148.209 166.172 148.02 165.878L148.005 165.883C148.035 166.24 148.063 166.608 148.073 166.981L148.088 168.768L149.716 168.222Z" fill="#CBD3DB"/>
<path d="M140.621 112.651C140.409 112.87 139.941 113.174 139.283 113.396C137.759 113.91 136.281 113.305 135.663 111.482C135.074 109.74 135.822 108.174 137.497 107.607C138.17 107.38 138.646 107.385 138.863 107.421L138.893 108.063C138.583 108.02 138.172 108.048 137.724 108.199C136.457 108.627 135.898 109.745 136.391 111.205C136.852 112.567 137.908 113.184 139.223 112.741C139.649 112.598 140.049 112.361 140.283 112.127L140.621 112.651Z" fill="#CBD3DB"/>
<path d="M141.175 106.469L142.289 109.762C142.709 111.009 143.425 111.356 144.148 111.112C144.949 110.84 145.279 110.123 144.863 108.894L143.75 105.6L144.455 105.361L145.551 108.604C146.128 110.314 145.493 111.311 144.322 111.706C143.216 112.079 142.163 111.709 141.578 109.984L140.47 106.706L141.175 106.469Z" fill="#CBD3DB"/>
<path d="M147.697 104.946L146.055 105.5L145.848 104.888L149.849 103.538L150.055 104.15L148.405 104.706L150.08 109.659L149.375 109.898L147.697 104.946Z" fill="#CBD3DB"/>
<path d="M46.9736 199.372C47.3767 199.163 47.8654 198.941 48.4171 198.755C49.4197 198.417 50.2133 198.415 50.8405 198.71C51.4754 199.002 51.9742 199.551 52.2765 200.449C52.5838 201.358 52.5611 202.192 52.2311 202.874C51.9011 203.564 51.163 204.128 50.1125 204.481C49.6162 204.649 49.1905 204.763 48.8227 204.843L46.9736 199.372ZM49.3341 204.058C49.5205 204.033 49.78 203.952 50.0546 203.861C51.5459 203.358 52.0649 202.227 51.556 200.724C51.1202 199.41 50.1176 198.818 48.6413 199.316C48.2811 199.437 48.0191 199.563 47.8478 199.666L49.3341 204.058Z" fill="#CBD3DB"/>
<path d="M55.1384 200.782L55.1687 202.721L54.4482 202.965L54.4028 196.781L55.2442 196.496L58.9676 201.439L58.2219 201.691L57.053 200.135L55.1384 200.782ZM56.7205 199.624L55.6498 198.201C55.408 197.879 55.214 197.574 55.0251 197.279L55.01 197.284C55.0402 197.642 55.0679 198.01 55.078 198.382L55.0931 200.17L56.7205 199.624Z" fill="#CBD3DB"/>
<path d="M59.2973 195.809L57.6548 196.363L57.4482 195.751L61.4487 194.401L61.6552 195.013L60.0052 195.57L61.6804 200.523L60.9751 200.762L59.2973 195.809Z" fill="#CBD3DB"/>
<path d="M66.646 195.94L64.545 196.65L65.2227 198.657L67.563 197.866L67.767 198.468L64.7289 199.493L62.8496 193.928L65.7668 192.943L65.9709 193.545L63.7515 194.296L64.346 196.053L66.447 195.343L66.646 195.94Z" fill="#CBD3DB"/>
<path d="M117.525 199.342C116.813 199.583 116.037 199.201 115.795 198.486L107.058 172.634C106.816 171.921 107.199 171.145 107.915 170.904C108.628 170.662 109.404 171.045 109.646 171.76L118.382 197.612C118.624 198.327 118.241 199.1 117.525 199.342Z" fill="#CBD3DB"/>
<path d="M46.9083 213.011C46.3717 213.193 45.7923 212.906 45.6109 212.369L22.3112 143.435C22.1298 142.899 22.417 142.32 22.9536 142.138C23.4902 141.957 24.0696 142.244 24.251 142.78L47.5482 211.715C47.7296 212.251 47.4424 212.83 46.9083 213.011Z" fill="#556987"/>
<path d="M176.65 180.084L135.998 193.81C135.462 193.991 134.882 193.704 134.701 193.168C134.519 192.631 134.807 192.052 135.343 191.871L175.995 178.145C176.532 177.964 177.111 178.251 177.292 178.787C177.471 179.324 177.184 179.903 176.65 180.084Z" fill="#302F3D"/>
<path d="M183.502 166.89C182.966 167.071 182.386 166.784 182.205 166.248L158.908 97.3135C158.727 96.7772 159.014 96.198 159.55 96.0167C160.087 95.8354 160.666 96.1225 160.848 96.6588L184.145 165.593C184.326 166.129 184.039 166.709 183.502 166.89Z" fill="#302F3D"/>
<path d="M106.532 203.761L58.8215 219.87C58.2849 220.052 57.7055 219.765 57.5241 219.228C57.3427 218.692 57.6299 218.113 58.1665 217.932L105.877 201.822C106.413 201.64 106.993 201.927 107.174 202.464C107.356 202.998 107.068 203.579 106.532 203.761Z" fill="#302F3D"/>
</g>
<g clip-path="url(#clip1_423_515)">
<path d="M232.285 125.574C231.148 129.308 230.012 133.038 228.876 136.771C223.581 154.171 218.282 171.568 212.986 188.966C211.852 192.69 210.72 196.411 209.586 200.136C209.283 201.126 208.983 202.116 208.68 203.106C207.714 206.284 204.79 208.451 201.463 208.479C196.269 208.526 190.016 208.115 183.084 206.674C176.117 205.226 170.191 203.101 165.433 200.978C164.274 200.462 163.293 199.679 162.55 198.725C161.381 197.23 160.787 195.313 160.97 193.337L161.269 190.125L167.358 124.712L168.507 112.361L232.285 125.574Z" fill="#FFECD9"/>
<path d="M169.648 106.827C169.648 106.827 170.036 103 174.002 103.589C174.002 103.589 175.489 98.0676 180.756 99.1583C180.756 99.1583 182.165 95.7186 185.385 97.6692C185.385 97.6692 186.427 92.9886 192.222 94.6263C192.222 94.6263 196.72 90.2243 201.211 95.6441C201.211 95.6441 204.755 91.4809 208.28 95.3588C208.28 95.3588 215.824 93.891 216.213 101.083C216.213 101.083 221.055 98.4716 223.809 103.006C223.809 103.006 227.234 103.716 226.14 107.336C226.14 107.336 229.758 107.153 230.015 110.821C230.015 110.821 233.275 111.263 232.179 114.883C232.179 114.883 235.112 117.241 233.411 120.036C233.411 120.036 222.695 122.362 201.689 118.011C180.681 113.66 169.648 106.827 169.648 106.827Z" fill="#F5C575"/>
<path d="M171.495 107.208C171.495 107.208 171.691 102.002 176.507 102.212C176.507 102.212 179.48 98.5629 183.128 102.621C186.122 105.952 183.267 107.484 183.267 107.484C183.267 107.484 186.814 108.981 186.526 112.507C186.125 117.392 171.495 107.208 171.495 107.208Z" fill="#F5D482"/>
<path d="M204.608 111.914C204.608 111.914 201.288 111.826 201.226 114.941C201.153 118.523 207.448 116.843 207.448 116.843C207.448 116.843 213.575 119.423 212.725 114.613C212.725 114.613 214.623 114.332 214.151 111.948C213.678 109.564 211.346 108.12 208.98 110.252C208.98 110.252 206.013 108.061 204.608 111.914Z" fill="#F5D482"/>
<path d="M208.095 95.9523C208.095 95.9523 205.902 95.8946 205.862 97.9516C205.815 100.316 209.972 99.2065 209.972 99.2065C209.972 99.2065 214.018 100.912 213.458 97.7339C213.458 97.7339 214.711 97.5482 214.397 95.9738C214.086 94.4001 212.545 93.4461 210.983 94.8551C210.982 94.8543 209.023 93.4091 208.095 95.9523Z" fill="#F5EDC8"/>
<path d="M196.278 103.672C196.278 103.672 192.957 103.584 192.896 106.7C192.823 110.282 199.118 108.602 199.118 108.602C199.118 108.602 205.245 111.182 204.395 106.372C204.395 106.372 206.293 106.091 205.82 103.707C205.348 101.323 203.016 99.8783 200.649 102.011C200.649 102.011 197.683 99.8202 196.278 103.672Z" fill="#F5D482"/>
<path d="M192.281 92.9142C192.281 92.9142 188.96 92.826 188.899 95.9416C188.826 99.5232 195.121 97.8434 195.121 97.8434C195.121 97.8434 201.248 100.424 200.398 95.6138C200.398 95.6138 202.296 95.3324 201.823 92.9484C201.351 90.5643 199.019 89.12 196.652 91.2524C196.652 91.2524 193.686 89.0619 192.281 92.9142Z" fill="#F5DBB1"/>
<path d="M217.519 107.041C217.519 107.041 219.218 109.894 221.893 108.295C224.968 106.456 220.183 102.025 220.183 102.025C220.183 102.025 220.789 97.1916 215.475 98.7453C215.475 98.7453 214.223 97.2907 212.455 98.9543C210.686 100.619 210.705 103.356 213.777 104.224C213.776 104.226 213.503 107.895 217.519 107.041Z" fill="#F5DBB1"/>
<path d="M206.087 93.7785C206.087 93.7785 203.414 89.9501 200.721 95.3664C200.721 95.3664 198.292 95.5339 198.13 98.299C197.969 101.064 202.399 101.894 203.92 101.422C203.92 101.422 206.623 103.293 208.218 100.651C209.812 98.0082 207.849 97.3945 207.849 97.3945C207.849 97.3945 210.328 94.5533 206.087 93.7785Z" fill="#F5D482"/>
<path d="M178.455 103.226C176.87 102.028 175.945 103.277 175.67 104.458C175.67 104.458 174.817 104.13 174.305 105.202C173.791 106.274 175.256 108.471 177.575 106.309C177.575 106.309 178.367 107.481 179.554 106.711C180.74 105.943 179.823 105.24 179.823 105.24C180.281 104.82 180.354 104.122 179.999 103.622C179.656 103.137 178.999 102.967 178.455 103.226Z" fill="#F5B56B"/>
<path d="M179.471 97.8195C179.471 97.8195 177.561 95.0864 175.639 98.9535C175.639 98.9535 173.905 99.0726 173.79 101.048C173.676 103.022 176.745 103.98 177.974 102.835C177.974 102.835 179.852 104.614 180.992 102.728C182.13 100.842 180.728 100.403 180.728 100.403C180.728 100.403 182.499 98.3729 179.471 97.8195Z" fill="#F5EDC8"/>
<path d="M204.984 98.2331C204.984 98.2331 203.439 96.0211 201.884 99.1512C201.884 99.1512 200.48 99.2479 200.388 100.846C200.295 102.443 202.854 102.923 203.733 102.649C203.733 102.649 205.294 103.73 206.216 102.203C207.137 100.677 206.002 100.322 206.002 100.322C206.002 100.322 207.436 98.6811 204.984 98.2331Z" fill="#F5EDC8"/>
<path d="M218.497 112.152C218.497 112.152 216.184 108.839 213.854 113.527C213.854 113.527 211.752 113.672 211.613 116.063C211.474 118.457 215.306 119.174 216.622 118.766C216.622 118.766 218.962 120.385 220.341 118.098C221.721 115.811 220.022 115.28 220.022 115.28C220.022 115.28 222.168 112.822 218.497 112.152Z" fill="#F5EDC8"/>
<path d="M189.029 104.455C189.029 104.455 186.355 100.627 183.663 106.043C183.663 106.043 181.234 106.211 181.072 108.976C180.912 111.742 185.341 112.571 186.862 112.099C186.862 112.099 189.565 113.97 191.16 111.328C192.754 108.685 190.79 108.072 190.79 108.072C190.79 108.072 193.27 105.23 189.029 104.455Z" fill="#F5DBB1"/>
<path d="M225.125 119.874C225.125 119.874 229.703 120.808 227.902 115.024C227.902 115.024 229.541 113.229 227.746 111.113C225.951 108.998 222.178 111.448 221.406 112.838C221.406 112.838 218.16 113.344 218.834 116.36C219.507 119.376 221.351 118.467 221.351 118.467C221.351 118.467 221.525 122.236 225.125 119.874Z" fill="#F5DBB1"/>
<path d="M221.195 106.486C221.195 106.486 217.398 107.665 218.406 110.98C219.313 113.964 225.442 114.973 225.834 110.945C225.834 110.945 229.379 111.145 229.25 107.32C229.12 103.494 225.732 105.852 225.732 105.852C225.732 105.852 223.152 102.082 221.195 106.486Z" fill="#F5D482"/>
<path d="M188.28 97.4517C188.28 97.4517 185.141 95.1111 183.934 98.4174C183.934 98.4174 181.483 99.542 183.786 101.127C183.786 101.127 184.084 104.22 187.148 101.823C187.148 101.823 190.911 104.796 191.63 100.479C192.37 96.0251 188.28 97.4517 188.28 97.4517Z" fill="#F5D482"/>
<path d="M208.622 113.091C207.036 111.893 206.111 113.142 205.837 114.323C205.837 114.323 204.984 113.995 204.471 115.067C203.957 116.138 205.423 118.336 207.742 116.174C207.742 116.174 208.534 117.346 209.72 116.576C210.906 115.808 209.99 115.105 209.99 115.105C210.448 114.684 210.52 113.986 210.166 113.487C209.821 113.001 209.164 112.831 208.622 113.091Z" fill="#F5B56B"/>
<path d="M225.583 107.462C225.583 107.462 227.217 107.29 226.674 108.761C226.674 108.761 227.823 110.305 225.906 110.637C225.906 110.637 224.931 112.956 223.433 110.955C223.433 110.955 222.073 111.702 221.91 110.064C221.747 108.426 223.33 108.169 223.748 108.456C223.749 108.453 223.999 106.438 225.583 107.462Z" fill="#F5B56B"/>
<path d="M205.216 108.242C205.216 108.242 202.077 105.902 200.87 109.208C200.87 109.208 198.419 110.333 200.722 111.917C200.722 111.917 201.021 115.01 204.084 112.614C204.084 112.614 207.847 115.586 208.566 111.269C209.307 106.816 205.216 108.242 205.216 108.242Z" fill="#F5DBB1"/>
<path d="M194.531 96.783C195.817 98.2965 196.992 97.2818 197.518 96.187C197.518 96.187 198.279 96.6933 199.015 95.76C199.751 94.8281 198.8 92.3642 196.065 93.9681C196.065 93.9681 195.549 92.6536 194.222 93.1448C192.896 93.636 193.637 94.5209 193.637 94.5209C193.099 94.8304 192.875 95.496 193.111 96.0612C193.34 96.608 193.945 96.9172 194.531 96.783Z" fill="#F5B56B"/>
<path d="M192.975 97.3454C190.485 96.2465 189.645 98.2005 189.653 99.8637C189.653 99.8637 188.413 99.6936 188.067 101.284C187.719 102.874 190.364 105.346 192.773 101.734C192.773 101.734 194.196 103.049 195.536 101.651C196.875 100.253 195.432 99.6044 195.432 99.6044C195.908 98.9004 195.787 97.9462 195.158 97.3905C194.547 96.8512 193.618 96.8292 192.975 97.3454Z" fill="#F5EDC8"/>
<path d="M212.675 108.408C212.838 105.698 210.71 105.585 209.15 106.168C209.15 106.168 208.877 104.949 207.263 105.173C205.649 105.397 204.252 108.727 208.482 109.735C208.482 109.735 207.744 111.522 209.525 112.294C211.305 113.065 211.41 111.489 211.41 111.489C212.238 111.692 213.092 111.247 213.394 110.468C213.688 109.709 213.384 108.834 212.675 108.408Z" fill="#F5EDC8"/>
<path d="M188.53 111.813C189.35 114.404 191.376 113.748 192.621 112.646C192.621 112.646 193.313 113.687 194.739 112.901C196.165 112.115 196.274 108.504 191.965 109.075C191.965 109.075 192.012 107.142 190.074 107.059C188.135 106.975 188.603 108.486 188.603 108.486C187.757 108.592 187.12 109.312 187.119 110.149C187.119 110.96 187.716 111.67 188.53 111.813Z" fill="#F5EDC8"/>
<path d="M198.934 107.01C200.219 108.524 201.395 107.509 201.921 106.414C201.921 106.414 202.682 106.92 203.418 105.987C204.153 105.055 203.203 102.591 200.468 104.195C200.468 104.195 199.952 102.881 198.625 103.372C197.299 103.863 198.04 104.748 198.04 104.748C197.501 105.057 197.277 105.723 197.514 106.288C197.743 106.835 198.346 107.144 198.934 107.01Z" fill="#F5B56B"/>
<path d="M231.956 109.484C230.54 107.162 228.731 108.284 227.785 109.65C227.785 109.65 226.864 108.804 225.668 109.908C224.473 111.012 225.231 114.548 229.277 112.964C229.277 112.964 229.692 114.854 231.594 114.473C233.495 114.092 232.681 112.737 232.681 112.737C233.475 112.432 233.921 111.58 233.723 110.768C233.531 109.975 232.78 109.427 231.956 109.484Z" fill="#F5EDC8"/>
<path d="M204.665 120.552L197.943 119.159L180.605 203.362L187.327 204.754L204.665 120.552Z" fill="#A03B40"/>
<path d="M177.333 201.987L173.241 199.449L185.817 115.947L192.539 117.34L177.333 201.987Z" fill="#A03B40"/>
<path d="M169.068 197.301L165.825 195.925L176.966 113.873L182.279 114.974L169.068 197.301Z" fill="#A03B40"/>
<path d="M162.549 198.726C161.38 197.231 160.786 195.314 160.969 193.339L161.268 190.126L168.507 112.361L172.225 113.13L162.849 196.013C162.849 196.013 162.785 197.188 162.549 198.726Z" fill="#A03B40"/>
<path d="M191.694 204.962L196.453 204.257L217.879 122.589L211.157 121.196L191.694 204.962Z" fill="#A03B40"/>
<path d="M200.122 203.735L203.645 203.76L225.817 123.993L220.504 122.892L200.122 203.735Z" fill="#A03B40"/>
<path d="M232.285 125.574C225.852 146.705 219.418 167.837 212.984 188.966L209.584 200.136L208.386 203.162C207.776 205.048 206.472 206.572 204.809 207.481C205.2 205.973 205.605 204.869 205.605 204.869L229.727 125.043L232.285 125.574Z" fill="#A03B40"/>
<path d="M232.285 125.574C231.148 129.308 230.012 133.038 228.876 136.771C222.907 132.708 213.49 127.801 200.238 125.055C185.909 122.087 174.54 123.189 167.358 124.712L168.507 112.361L232.285 125.574Z" fill="#E6E6E6"/>
<path d="M235.396 124.057C234.842 125.186 233.577 125.84 232.285 125.574C222.439 124.559 211.622 122.986 200.049 120.586C188.503 118.195 177.973 115.347 168.552 112.371C167.245 111.903 166.284 110.874 166.245 109.72C166.183 107.805 167.894 106.462 169.648 106.826C179.489 109.595 190.09 112.231 201.404 114.571C212.637 116.896 223.34 118.677 233.41 120.037C233.648 120.082 234.351 120.257 234.946 120.895C235.348 121.323 235.615 121.872 235.672 122.481C235.728 123.065 235.622 123.599 235.396 124.057Z" fill="#FFECD9"/>
<path d="M235.396 124.057C234.842 125.186 233.577 125.84 232.285 125.574C222.439 124.559 211.622 122.986 200.049 120.586C188.504 118.195 177.973 115.346 168.552 112.371C167.246 111.903 166.284 110.874 166.245 109.72C176.356 112.869 187.565 115.875 199.791 118.432C212.535 121.097 224.468 122.873 235.367 124.039C235.376 124.045 235.386 124.052 235.396 124.057Z" fill="#F3DDCF"/>
<path d="M209.586 200.137C209.282 201.127 208.983 202.117 208.68 203.108C207.713 206.285 204.79 208.453 201.462 208.481C196.268 208.528 190.016 208.117 183.084 206.676C176.117 205.228 170.19 203.102 165.432 200.98C162.459 199.655 160.669 196.573 160.97 193.337L161.269 190.125C166.058 193.113 173.79 197.155 184.064 199.357C194.822 201.663 203.9 200.995 209.586 200.137Z" fill="#F3DDCF"/>
<path d="M189.989 172.95C200.273 175.081 210.198 169.099 212.156 159.588C214.114 150.078 207.365 140.641 197.08 138.51C186.796 136.379 176.871 142.361 174.913 151.871C172.955 161.382 179.705 170.819 189.989 172.95Z" fill="#FFE2C4"/>
<path d="M185.124 173.416C181.578 171.864 178.53 169.424 176.295 166.298C173.131 161.875 171.971 156.612 173.028 151.482C174.085 146.351 177.227 141.98 181.879 139.176C186.483 136.4 192.021 135.494 197.473 136.623C208.784 138.968 216.221 149.446 214.051 159.982C211.882 170.518 200.915 177.185 189.605 174.841C188.045 174.517 186.544 174.039 185.124 173.416ZM200.376 141.568C199.218 141.061 197.988 140.666 196.694 140.398C192.198 139.467 187.646 140.205 183.877 142.477C180.155 144.721 177.644 148.197 176.806 152.266C175.969 156.336 176.902 160.525 179.433 164.064C181.997 167.649 185.885 170.135 190.38 171.067C199.607 172.978 208.527 167.655 210.268 159.199C211.766 151.929 207.474 144.674 200.376 141.568Z" fill="#A03B40"/>
<path d="M185.327 152.552L187.232 143.298L189.28 143.722C190.194 143.912 190.822 144.31 191.164 144.918C191.505 145.525 191.57 146.349 191.355 147.39C191.155 148.364 190.748 149.073 190.136 149.52C189.523 149.967 188.77 150.098 187.874 149.912L187.707 149.878L187.082 152.917L185.327 152.552ZM188.704 145.033L188.002 148.445L188.071 148.46C188.449 148.538 188.767 148.45 189.022 148.197C189.278 147.943 189.463 147.532 189.58 146.965C189.695 146.41 189.681 145.974 189.539 145.659C189.395 145.343 189.118 145.135 188.704 145.033Z" fill="#A03B40"/>
<path d="M197.172 150.37C196.853 151.923 196.391 153.037 195.787 153.712C195.184 154.386 194.435 154.63 193.539 154.446C192.628 154.257 192.037 153.726 191.764 152.853C191.491 151.981 191.524 150.725 191.86 149.085C192.199 147.441 192.665 146.274 193.26 145.584C193.854 144.894 194.607 144.643 195.518 144.831C196.447 145.023 197.044 145.56 197.31 146.441C197.577 147.321 197.531 148.631 197.172 150.37ZM193.686 149.406C193.426 150.672 193.311 151.557 193.341 152.062C193.372 152.568 193.543 152.853 193.856 152.917C194.172 152.983 194.445 152.79 194.672 152.337C194.9 151.886 195.144 151.027 195.404 149.761C195.661 148.516 195.773 147.633 195.743 147.116C195.713 146.598 195.541 146.306 195.229 146.242C194.913 146.177 194.642 146.369 194.416 146.816C194.192 147.267 193.947 148.13 193.686 149.406Z" fill="#A03B40"/>
<path d="M197.514 155.076L199.419 145.822L201.468 146.246C202.382 146.436 203.009 146.834 203.351 147.442C203.692 148.049 203.757 148.873 203.543 149.914C203.342 150.888 202.935 151.597 202.323 152.045C201.71 152.491 200.957 152.622 200.062 152.437L199.895 152.402L199.27 155.441L197.514 155.076ZM200.89 147.558L200.187 150.97L200.257 150.985C200.634 151.063 200.952 150.975 201.207 150.723C201.462 150.469 201.648 150.059 201.765 149.492C201.879 148.937 201.866 148.5 201.724 148.186C201.581 147.869 201.303 147.66 200.89 147.558Z" fill="#A03B40"/>
<path d="M185.307 160.044C184.997 160.883 184.57 161.484 184.021 161.846C183.474 162.208 182.835 162.312 182.101 162.16C181.199 161.973 180.608 161.444 180.331 160.573C180.053 159.702 180.081 158.46 180.413 156.847C180.758 155.176 181.239 153.995 181.86 153.303C182.481 152.612 183.275 152.367 184.244 152.568C184.928 152.709 185.434 153.019 185.764 153.493C186.095 153.968 186.253 154.622 186.239 155.453L184.498 155.672C184.558 155.166 184.54 154.786 184.444 154.531C184.348 154.274 184.167 154.118 183.901 154.064C183.542 153.99 183.24 154.178 182.992 154.628C182.743 155.079 182.488 155.945 182.225 157.225C181.97 158.463 181.866 159.329 181.913 159.821C181.961 160.313 182.158 160.596 182.506 160.667C182.765 160.721 183.001 160.621 183.216 160.367C183.432 160.114 183.629 159.705 183.81 159.143L185.307 160.044Z" fill="#A03B40"/>
<path d="M191.828 159.347C191.508 160.9 191.046 162.014 190.443 162.688C189.84 163.363 189.09 163.608 188.195 163.422C187.284 163.234 186.692 162.703 186.419 161.83C186.146 160.958 186.179 159.702 186.516 158.062C186.855 156.418 187.321 155.251 187.915 154.561C188.51 153.87 189.263 153.619 190.173 153.808C191.103 153.999 191.7 154.537 191.966 155.417C192.232 156.3 192.186 157.61 191.828 159.347ZM188.341 158.385C188.081 159.651 187.966 160.535 187.996 161.042C188.026 161.547 188.198 161.833 188.51 161.897C188.826 161.963 189.099 161.769 189.326 161.317C189.554 160.865 189.799 160.006 190.058 158.741C190.315 157.496 190.427 156.613 190.397 156.095C190.367 155.578 190.195 155.286 189.884 155.221C189.568 155.155 189.296 155.347 189.071 155.795C188.847 156.245 188.603 157.107 188.341 158.385Z" fill="#A03B40"/>
<path d="M192.169 164.055L194.074 154.8L196.256 155.252C197.209 155.45 197.885 155.818 198.283 156.356C198.68 156.894 198.791 157.591 198.615 158.446C198.494 159.037 198.264 159.51 197.926 159.86C197.588 160.212 197.168 160.418 196.665 160.478L197.408 165.139L195.585 164.76L194.954 160.086L194.787 160.052L193.891 164.41L192.169 164.055ZM194.977 159.118C195.001 159.123 195.033 159.132 195.078 159.145C195.121 159.158 195.155 159.168 195.179 159.172C195.627 159.264 195.997 159.222 196.291 159.042C196.585 158.863 196.776 158.564 196.862 158.147C196.947 157.73 196.892 157.387 196.693 157.123C196.494 156.858 196.16 156.676 195.689 156.578L195.51 156.541L194.977 159.118Z" fill="#A03B40"/>
<path d="M198.521 165.37L200.427 156.116L202.179 156.48L202.468 161.139C202.485 161.368 202.5 161.773 202.513 162.353C202.526 162.934 202.535 163.653 202.54 164.513L202.655 164.537C202.743 163.384 202.836 162.367 202.933 161.486C203.029 160.607 203.122 159.956 203.208 159.533L203.771 156.81L205.357 157.138L203.452 166.392L201.732 166.037L201.419 161.674C201.415 161.612 201.409 161.507 201.398 161.362C201.305 160.146 201.278 159.097 201.316 158.212L201.212 158.191C201.123 159.332 201.023 160.346 200.917 161.236C200.81 162.127 200.696 162.863 200.576 163.447L200.112 165.7L198.521 165.37Z" fill="#A03B40"/>
<path d="M214.852 102.431C214.852 102.431 214.242 100.86 215.847 101.007C215.847 101.007 217.07 99.4613 217.917 101.269C217.917 101.269 220.481 101.619 218.898 103.632C218.898 103.632 220.004 104.781 218.422 105.376C216.84 105.972 216.158 104.473 216.33 103.983C216.331 103.984 214.263 104.271 214.852 102.431Z" fill="#F5B56B"/>
<path d="M230.613 110.158C230.613 110.158 231.647 110.05 231.304 110.981C231.304 110.981 232.032 111.958 230.818 112.169C230.818 112.169 230.2 113.638 229.25 112.371C229.25 112.371 228.389 112.843 228.286 111.806C228.183 110.769 229.186 110.606 229.451 110.787C229.451 110.787 229.609 109.51 230.613 110.158Z" fill="#F5B56B"/>
<path d="M204.559 99.4379C204.559 99.4379 205.558 99.492 205.09 100.323C205.09 100.323 205.631 101.359 204.448 101.376C204.448 101.376 203.638 102.675 202.93 101.33C202.93 101.33 202.04 101.648 202.101 100.648C202.162 99.649 203.138 99.6455 203.361 99.8578C203.361 99.8578 203.705 98.6708 204.559 99.4379Z" fill="#F5B56B"/>
<path d="M178.776 99.4335C178.776 99.4335 179.822 99.3511 179.356 100.182C179.356 100.182 179.897 101.217 178.715 101.235C178.715 101.235 177.905 102.534 177.197 101.189C177.197 101.189 176.307 101.507 176.368 100.506C176.428 99.5073 177.404 99.5039 177.628 99.7161C177.625 99.7169 177.83 98.5482 178.776 99.4335Z" fill="#F5B56B"/>
<path d="M203.694 69.0569C203.694 69.0569 206.948 69.7299 207.562 66.6762C208.266 63.1657 201.772 63.7063 201.772 63.7063C201.772 63.7063 198.6 59.9958 196.181 64.9666C196.181 64.9666 194.262 64.9097 194.306 67.3384C194.349 69.7671 196.388 71.601 199.096 69.919C199.096 69.919 201.627 72.5981 203.694 69.0569Z" fill="#F5DBB1"/>
<path d="M198.491 67.9154C198.491 67.9154 196.918 67.3061 198.105 66.2193C198.105 66.2193 197.782 64.2736 199.688 64.8693C199.688 64.8693 201.67 63.2127 202.098 65.7399C202.098 65.7399 203.692 65.6972 203.069 67.2679C202.447 68.8386 200.879 68.3293 200.634 67.8721C200.634 67.8721 199.458 69.5919 198.491 67.9154Z" fill="#F5B56B"/>
<path d="M179.154 81.7571C179.154 81.7571 177.009 82.1989 177.755 84.0565C178.612 86.1898 182.211 84.2568 182.211 84.2568C182.211 84.2568 186.778 84.8739 185.023 82.149C185.023 82.149 186.164 81.6987 185.261 80.3563C184.358 79.014 182.504 78.5053 181.53 80.1211C181.53 80.1211 179.082 79.2643 179.154 81.7571Z" fill="#F5D482"/>
<path d="M181.583 80.7798C180.268 80.3064 179.99 81.1842 180.114 81.9245C180.114 81.9245 179.487 81.8578 179.428 82.5685C179.37 83.2791 180.861 84.3645 181.798 82.7374C181.798 82.7374 182.599 83.3138 183.164 82.6825C183.73 82.0496 182.965 81.7697 182.965 81.7697C183.151 81.4531 183.021 81.0267 182.669 80.7843C182.327 80.5486 181.865 80.5453 181.583 80.7798Z" fill="#F5B56B"/>
<path d="M214.558 92.1312C214.558 92.1312 217.019 93.241 216.744 89.7544C216.744 89.7544 217.897 88.9528 217.157 87.5326C216.415 86.1118 213.975 87.01 213.363 87.6948C213.363 87.6948 211.468 87.5653 211.462 89.3504C211.457 91.1355 212.612 90.8581 212.612 90.8581C212.612 90.8581 212.226 93.0028 214.558 92.1312Z" fill="#F5EDC8"/>
<path d="M214.301 90.8785C214.301 90.8785 213.418 91.3434 213.391 90.3904C213.391 90.3904 212.394 89.7776 213.4 89.156C213.4 89.156 213.427 87.6247 214.725 88.4193C214.725 88.4193 215.324 87.691 215.787 88.5802C216.249 89.4695 215.414 89.9715 215.113 89.9044C215.113 89.9044 215.428 91.1001 214.301 90.8785Z" fill="#F5B56B"/>
</g>
<defs>
<clipPath id="clip0_423_515">
<rect width="187" height="219" fill="white" transform="translate(0.5 5)"/>
</clipPath>
<clipPath id="clip1_423_515">
<rect width="97" height="166" fill="white" transform="translate(190.409 42) rotate(26.8244)"/>
</clipPath>
</defs>
</svg>
