<svg width="11" height="11" viewBox="0 0 11 11" fill="none" xmlns="http://www.w3.org/2000/svg">
<g clip-path="url(#clip0_418_518)">
<path d="M8.89732 10.9988L5.49849 9.11918L2.09894 10.9973L2.74888 7.01797L-0.000586457 4.1991L3.79994 3.61929L5.50022 -0.00101913L7.19913 3.62001L10.9994 4.20141L8.24889 7.01913L8.89732 10.9988Z" fill="#FFC637"/>
<path d="M7.21059 3.59717C5.48939 6.06054 5.4707 6.08734 5.4707 6.08734L10.9878 4.18787L7.21059 3.59717Z" fill="#FFB023"/>
<path d="M5.49932 6.03394V9.12689L2.06543 10.9798L5.49932 6.03394Z" fill="#FFDD55"/>
<path d="M5.49902 6.03418L8.87531 10.8858L8.2416 6.95667L5.49902 6.03418Z" fill="#FFB023"/>
<path d="M0.0224609 4.19205L5.50009 6.03453L3.80767 3.60254L0.0224609 4.19205Z" fill="#FFB023"/>
<path d="M5.49902 6.03412V0.00683594L7.1885 3.60088L5.49902 6.03412Z" fill="#FFC637"/>
<path d="M2.10059 10.9301L2.73837 6.96781L5.49981 6.03418L2.10059 10.9301Z" fill="#FFB023"/>
</g>
<defs>
<clipPath id="clip0_418_518">
<rect width="11" height="11" fill="white"/>
</clipPath>
</defs>
</svg>
