<svg width="48" height="48" viewBox="0 0 48 48" fill="none" xmlns="http://www.w3.org/2000/svg">
<path d="M31.0563 13.9138C31.0563 17.8856 27.8365 21.1054 23.8647 21.1054V22.6054C28.6649 22.6054 32.5563 18.7141 32.5563 13.9138H31.0563ZM23.8647 21.1054C19.8928 21.1054 16.673 17.8856 16.673 13.9138H15.173C15.173 18.7141 19.0644 22.6054 23.8647 22.6054V21.1054ZM16.673 13.9138C16.673 9.94197 19.8928 6.72217 23.8647 6.72217V5.22217C19.0644 5.22217 15.173 9.11354 15.173 13.9138H16.673ZM23.8647 6.72217C27.8365 6.72217 31.0563 9.94197 31.0563 13.9138H32.5563C32.5563 9.11354 28.6649 5.22217 23.8647 5.22217V6.72217ZM37.0125 34.7606C37.0125 36.2424 35.7918 37.7858 33.3565 39.0034C30.9661 40.1986 27.6113 40.9595 23.8647 40.9595V42.4595C27.7936 42.4595 31.3877 41.6648 34.0273 40.345C36.6221 39.0477 38.5125 37.1166 38.5125 34.7606H37.0125ZM23.8647 40.9595C20.1181 40.9595 16.7632 40.1986 14.3728 39.0034C11.9375 37.7858 10.7168 36.2424 10.7168 34.7606H9.2168C9.2168 37.1166 11.1072 39.0477 13.702 40.345C16.3416 41.6648 19.9357 42.4595 23.8647 42.4595V40.9595ZM10.7168 34.7606C10.7168 33.2788 11.9375 31.7354 14.3728 30.5178C16.7632 29.3226 20.1181 28.5617 23.8647 28.5617V27.0617C19.9357 27.0617 16.3416 27.8563 13.702 29.1761C11.1072 30.4735 9.2168 32.4046 9.2168 34.7606H10.7168ZM23.8647 28.5617C27.6113 28.5617 30.9661 29.3226 33.3565 30.5178C35.7918 31.7354 37.0125 33.2788 37.0125 34.7606H38.5125C38.5125 32.4046 36.6221 30.4735 34.0273 29.1761C31.3877 27.8563 27.7936 27.0617 23.8647 27.0617V28.5617Z" fill="#8292A9"/>
</svg>
